<svg width="28" height="28" viewBox="0 0 28 28" fill="none" xmlns="http://www.w3.org/2000/svg">
<path d="M7.3196 19.757C6.08312 19.757 5.07741 19.3102 4.32327 18.4231C3.56913 17.5361 3.07421 16.2198 2.78601 14.3046C2.36163 11.4822 2.78273 9.10328 3.97163 7.60648C4.67163 6.72492 5.59038 6.21523 6.62835 6.1332C7.51702 6.06211 8.84538 6.4225 10.1284 8.53945C10.9317 9.86508 11.5426 11.626 11.8045 13.3705C12.1212 15.4766 11.8855 17.027 11.0837 18.1092C10.4472 18.9689 9.46827 19.5016 8.17382 19.6952C7.89098 19.7367 7.60547 19.7574 7.3196 19.757ZM9.46171 27.125C8.73929 27.125 8.00702 26.8937 7.34749 26.4491C6.39578 25.8042 5.73702 24.8097 5.51437 23.6819C5.35851 22.8802 5.45202 22.243 5.79984 21.7328C6.36476 20.9043 7.37866 20.7178 8.45163 20.5198C8.56484 20.4991 8.67968 20.4783 8.79616 20.4559C9.04335 20.4088 9.29601 20.3465 9.54101 20.2858C10.4587 20.0594 11.408 19.8248 12.1917 20.3815C12.7162 20.7534 13.012 21.3855 13.1006 22.313C13.2012 23.3833 12.9716 24.4513 12.4537 25.3209C11.8964 26.2566 11.0608 26.8751 10.1021 27.0632C9.89113 27.1044 9.67667 27.1251 9.46171 27.125ZM20.6819 14.507C20.3963 14.506 20.1112 14.4841 19.8288 14.4413C18.5349 14.2499 17.556 13.7167 16.9194 12.8554C16.1177 11.7731 15.8804 10.2233 16.1987 8.11672C16.4606 6.37055 17.0698 4.61125 17.8694 3.29055C19.1458 1.18125 20.4758 0.81539 21.3694 0.879921C22.4041 0.95539 23.3212 1.45797 24.0223 2.33461C25.2194 3.83141 25.6437 6.21742 25.2177 9.05242C24.9295 10.9665 24.4412 12.2762 23.6805 13.1709C22.9198 14.0656 21.9184 14.507 20.6819 14.507ZM18.5398 21.875C18.3254 21.875 18.1115 21.8543 17.9011 21.8132C16.9408 21.6251 16.1051 21.0066 15.5495 20.0709C15.0316 19.2013 14.8019 18.1333 14.9026 17.063C14.9901 16.1334 15.2854 15.5034 15.8115 15.1309C16.5951 14.5748 17.5445 14.8088 18.4622 15.0358C18.7072 15.0959 18.9598 15.1583 19.207 15.2059L19.551 15.2698C20.6245 15.4673 21.6384 15.6527 22.2034 16.4823C22.5512 16.9925 22.6447 17.6307 22.4888 18.4313C22.2664 19.5594 21.6076 20.5541 20.6557 21.1991C19.9923 21.6442 19.2601 21.875 18.5398 21.875Z" fill="#8489B2"/>
</svg>
