<svg width="28" height="28" viewBox="0 0 28 28" fill="none" xmlns="http://www.w3.org/2000/svg">
<path d="M19.834 19.8333H17.5007V26.8333H15.1673V19.8333H12.694L10.8973 22.085L13.6623 24.8383L12.0057 26.495L9.25232 23.73C8.84398 23.3333 8.61065 22.785 8.57565 22.2133C8.54065 21.6417 8.71565 21.07 9.07732 20.6267L9.70732 19.8333H8.16732L10.5007 15.1667V11.6667C9.77732 12.215 9.19398 12.915 8.78565 13.72C8.37732 14.5367 8.16732 15.4233 8.16732 16.3333H5.83398C5.83429 14.1675 6.69481 12.0905 8.22629 10.559C9.75777 9.02749 11.8348 8.16698 14.0007 8.16667C15.5523 8.16667 17.034 7.54834 18.1307 6.46334C19.2157 5.36667 19.834 3.885 19.834 2.33334H22.1673C22.1673 3.87334 21.724 5.39 20.8956 6.685C20.0719 7.98962 18.8945 9.03345 17.5007 9.695V15.1667L19.834 19.8333ZM16.334 4.66667C16.334 5.13334 16.194 5.57667 15.9373 5.96167C15.6807 6.34667 15.319 6.65 14.899 6.825C14.4717 7.00015 14.0022 7.04487 13.5496 6.95352C13.097 6.86216 12.6815 6.63882 12.3557 6.31167C12.029 5.985 11.8073 5.57667 11.714 5.12167C11.6207 4.66667 11.6673 4.2 11.8423 3.78C12.0173 3.34834 12.3207 2.98667 12.7057 2.73C13.0907 2.47334 13.534 2.33334 14.0007 2.33334C14.619 2.33334 15.214 2.57834 15.6457 3.02167C16.089 3.45334 16.334 4.04834 16.334 4.66667Z" fill="#8489B2"/>
</svg>
