<svg width="28" height="28" viewBox="0 0 28 28" fill="none" xmlns="http://www.w3.org/2000/svg">
<path d="M18.6673 10.5V8.16666H14.0007V14.5833C13.5107 14.2217 12.9157 14 12.2507 14C11.4771 14 10.7352 14.3073 10.1883 14.8543C9.64127 15.4012 9.33398 16.1431 9.33398 16.9167C9.33398 17.6902 9.64127 18.4321 10.1883 18.9791C10.7352 19.526 11.4771 19.8333 12.2507 19.8333C13.0242 19.8333 13.7661 19.526 14.313 18.9791C14.86 18.4321 15.1673 17.6902 15.1673 16.9167V10.5H18.6673ZM14.0007 2.33333C15.5327 2.33333 17.0498 2.6351 18.4653 3.2214C19.8808 3.80771 21.1669 4.66707 22.2502 5.75042C23.3336 6.83377 24.1929 8.11989 24.7792 9.53535C25.3656 10.9508 25.6673 12.4679 25.6673 14C25.6673 17.0942 24.4382 20.0616 22.2502 22.2496C20.0623 24.4375 17.0948 25.6667 14.0007 25.6667C12.4686 25.6667 10.9515 25.3649 9.53601 24.7786C8.12055 24.1923 6.83442 23.3329 5.75107 22.2496C3.56315 20.0616 2.33398 17.0942 2.33398 14C2.33398 10.9058 3.56315 7.93834 5.75107 5.75042C7.939 3.56249 10.9065 2.33333 14.0007 2.33333Z" fill="#8489B2"/>
</svg>
