<svg width="28" height="28" viewBox="0 0 28 28" fill="none" xmlns="http://www.w3.org/2000/svg">
<path d="M1.71845 15.2474C1.56827 15.3522 1.46235 15.5091 1.42122 15.6876C1.3801 15.866 1.40669 16.0534 1.49585 16.2134L3.31025 19.355C3.49645 19.677 3.92345 19.81 4.25805 19.6462L9.79925 16.9624V26.6H12.5993V15.6044L18.2987 12.8422L14.6307 6.4862L1.71845 15.2474ZM25.8391 4.2518C25.0846 2.94707 23.8429 1.99532 22.3869 1.60573C20.931 1.21615 19.3799 1.42062 18.0747 2.1742C16.8007 2.9092 15.9635 4.0768 15.5533 5.3788L19.7197 12.5972C21.0511 12.894 22.4819 12.7512 23.7587 12.0162C25.0641 11.2624 26.0167 10.021 26.4069 8.56485C26.797 7.10875 26.5928 5.5573 25.8391 4.2518Z" fill="#8489B2"/>
</svg>
