<svg width="28" height="28" viewBox="0 0 28 28" fill="none" xmlns="http://www.w3.org/2000/svg">
<path d="M14.0007 2.33334C7.57232 2.33334 2.33398 7.57167 2.33398 14C2.33398 20.4283 7.57232 25.6667 14.0007 25.6667C14.7742 25.6667 15.5161 25.3594 16.063 24.8124C16.61 24.2654 16.9173 23.5236 16.9173 22.75C16.9173 22.0383 16.649 21.35 16.1707 20.8017C16.0772 20.6947 16.0236 20.5587 16.019 20.4167C16.019 20.09 16.2757 19.8333 16.6023 19.8333H18.6673C22.529 19.8333 25.6673 16.695 25.6673 12.8333C25.6673 7.04667 20.429 2.33334 14.0007 2.33334ZM20.4173 15.1667C19.449 15.1667 18.6673 14.385 18.6673 13.4167C18.6673 12.4483 19.449 11.6667 20.4173 11.6667C21.3857 11.6667 22.1673 12.4483 22.1673 13.4167C22.1673 14.385 21.3857 15.1667 20.4173 15.1667ZM16.9173 10.5C15.949 10.5 15.1673 9.71834 15.1673 8.75C15.1673 7.78167 15.949 7 16.9173 7C17.8857 7 18.6673 7.78167 18.6673 8.75C18.6673 9.71834 17.8857 10.5 16.9173 10.5ZM5.83398 13.4167C5.83398 12.4483 6.61565 11.6667 7.58398 11.6667C8.55232 11.6667 9.33398 12.4483 9.33398 13.4167C9.33398 14.385 8.55232 15.1667 7.58398 15.1667C6.61565 15.1667 5.83398 14.385 5.83398 13.4167ZM12.834 8.75C12.834 9.71834 12.0523 10.5 11.084 10.5C10.1157 10.5 9.33398 9.71834 9.33398 8.75C9.33398 7.78167 10.1157 7 11.084 7C12.0523 7 12.834 7.78167 12.834 8.75Z" fill="#8489B2"/>
</svg>
