<svg width="28" height="28" viewBox="0 0 28 28" fill="none" xmlns="http://www.w3.org/2000/svg">
<path d="M4.66732 4.66666H8.16732L10.5007 2.33333H17.5007L19.834 4.66666H23.334C23.9528 4.66666 24.5463 4.91249 24.9839 5.35008C25.4215 5.78766 25.6673 6.38116 25.6673 6.99999V21C25.6673 21.6188 25.4215 22.2123 24.9839 22.6499C24.5463 23.0875 23.9528 23.3333 23.334 23.3333H4.66732C4.04848 23.3333 3.45499 23.0875 3.0174 22.6499C2.57982 22.2123 2.33398 21.6188 2.33398 21V6.99999C2.33398 6.38116 2.57982 5.78766 3.0174 5.35008C3.45499 4.91249 4.04848 4.66666 4.66732 4.66666ZM14.0007 8.16666C12.4536 8.16666 10.9698 8.78124 9.87586 9.87521C8.7819 10.9692 8.16732 12.4529 8.16732 14C8.16732 15.5471 8.7819 17.0308 9.87586 18.1248C10.9698 19.2187 12.4536 19.8333 14.0007 19.8333C15.5477 19.8333 17.0315 19.2187 18.1254 18.1248C19.2194 17.0308 19.834 15.5471 19.834 14C19.834 12.4529 19.2194 10.9692 18.1254 9.87521C17.0315 8.78124 15.5477 8.16666 14.0007 8.16666ZM14.0007 10.5C14.9289 10.5 15.8191 10.8687 16.4755 11.5251C17.1319 12.1815 17.5007 13.0717 17.5007 14C17.5007 14.9283 17.1319 15.8185 16.4755 16.4749C15.8191 17.1312 14.9289 17.5 14.0007 17.5C13.0724 17.5 12.1822 17.1312 11.5258 16.4749C10.8694 15.8185 10.5007 14.9283 10.5007 14C10.5007 13.0717 10.8694 12.1815 11.5258 11.5251C12.1822 10.8687 13.0724 10.5 14.0007 10.5Z" fill="#8489B2"/>
</svg>
