<svg width="28" height="28" viewBox="0 0 28 28" fill="none" xmlns="http://www.w3.org/2000/svg">
<g clip-path="url(#clip0_633_4682)">
<path d="M4.66732 4.66667C4.04848 4.66667 3.45499 4.9125 3.0174 5.35009C2.57982 5.78767 2.33398 6.38116 2.33398 7V21C2.33398 21.6188 2.57982 22.2123 3.0174 22.6499C3.45499 23.0875 4.04848 23.3333 4.66732 23.3333H18.6673C19.2862 23.3333 19.8796 23.0875 20.3172 22.6499C20.7548 22.2123 21.0007 21.6188 21.0007 21V18.4217L23.4436 19.9267C23.6644 20.0628 23.9175 20.1376 24.1768 20.1433C24.4361 20.149 24.6922 20.0855 24.9188 19.9592C25.1454 19.833 25.3342 19.6486 25.4657 19.4251C25.5973 19.2016 25.6669 18.947 25.6673 18.6877V9.31467C25.6675 9.05501 25.5984 8.80001 25.4671 8.576C25.3357 8.352 25.147 8.16712 24.9203 8.04046C24.6937 7.91381 24.4373 7.84997 24.1777 7.85554C23.9181 7.86111 23.6647 7.9359 23.4436 8.07217L21.0007 9.57833V7C21.0007 6.38116 20.7548 5.78767 20.3172 5.35009C19.8796 4.9125 19.2862 4.66667 18.6673 4.66667H4.66732Z" fill="#8489B2"/>
</g>
<defs>
<clipPath id="clip0_633_4682">
<rect width="28" height="28" fill="white"/>
</clipPath>
</defs>
</svg>
