<svg width="599" height="1774" viewBox="0 0 599 1774" fill="none" xmlns="http://www.w3.org/2000/svg">
<g opacity="0.495478" filter="url(#filter0_f_2603_13305)">
<path d="M195.048 1107.1C78.1267 1154.85 -64.2284 1190.7 -147.583 1095.58C-238.659 991.64 -220.218 835.495 -143.56 720.686C-69.7907 610.202 63.4523 552.025 191.419 587.857C316.257 622.812 397.704 742.789 398.61 872.498C399.411 987.076 300.992 1063.83 195.048 1107.1Z" fill="#FF4D9C" fill-opacity="0.4"/>
</g>
<g filter="url(#filter1_f_2603_13305)">
<path d="M-226.123 764.502C-378.067 682.279 -468.317 504.017 -386.02 352.084C-301.586 196.204 -100.685 160.765 55.2063 245.124C188.328 317.162 193.931 493.79 121.829 626.901C52.2431 755.368 -97.6461 834.026 -226.123 764.502Z" fill="#FD6F00" fill-opacity="0.4"/>
</g>
<path d="M-447.901 1038.23C-479.764 1053.67 -501.584 1090.29 -536.694 1094.87C-571.243 1099.38 -606.28 1082.1 -635.215 1062.68C-662.913 1044.09 -672.926 1007.67 -698.512 986.273C-724.887 964.212 -767.814 963.828 -787.283 935.485C-806.358 907.715 -796.159 869.553 -801.533 836.295C-807.141 801.59 -827.663 767.656 -819.945 733.361C-812.245 699.146 -776.083 679.29 -759.274 648.512C-740.109 613.422 -745.458 562.883 -713.627 538.692C-682.56 515.082 -637.183 528.637 -598.242 526.134C-562.76 523.854 -528.036 525.577 -492.497 524.482C-450.648 523.193 -399.222 491.051 -368.079 519.043C-333.352 550.256 -371.828 617.268 -345.992 656.162C-322.779 691.109 -246.524 675.805 -236.835 716.625C-226.775 759.005 -301.342 783.078 -305.576 826.428C-309.689 868.55 -247.871 902.541 -258.979 943.378C-269.095 980.572 -320.145 989.335 -354.588 1006.63C-384.189 1021.49 -418.094 1023.79 -447.901 1038.23Z" fill="#6842FF" fill-opacity="0.4"/>
<path d="M-522.389 1572.28C-591.665 1579.35 -657.132 1547.53 -717.045 1512.1C-776.671 1476.83 -832.805 1433.55 -862.63 1371.04C-893.064 1307.25 -899.295 1233.84 -882.581 1165.15C-866.125 1097.52 -824.105 1039.74 -771.045 994.651C-718.936 950.374 -655.496 923.035 -587.647 914.548C-518.42 905.889 -445.476 910.049 -386.016 946.488C-327.208 982.527 -295.68 1047.09 -268.175 1110.33C-240.75 1173.38 -214.851 1240.37 -228.904 1307.7C-243.026 1375.36 -292.736 1427.75 -344.091 1474.04C-395.753 1520.61 -453.195 1565.22 -522.389 1572.28Z" fill="#FD6F00" fill-opacity="0.4"/>
<defs>
<filter id="filter0_f_2603_13305" x="-408.752" y="377.305" width="1007.37" height="977.99" filterUnits="userSpaceOnUse" color-interpolation-filters="sRGB">
<feFlood flood-opacity="0" result="BackgroundImageFix"/>
<feBlend mode="normal" in="SourceGraphic" in2="BackgroundImageFix" result="shape"/>
<feGaussianBlur stdDeviation="100" result="effect1_foregroundBlur_2603_13305"/>
</filter>
<filter id="filter1_f_2603_13305" x="-617.167" y="0.599556" width="985.062" height="989.814" filterUnits="userSpaceOnUse" color-interpolation-filters="sRGB">
<feFlood flood-opacity="0" result="BackgroundImageFix"/>
<feBlend mode="normal" in="SourceGraphic" in2="BackgroundImageFix" result="shape"/>
<feGaussianBlur stdDeviation="100" result="effect1_foregroundBlur_2603_13305"/>
</filter>
</defs>
</svg>
